<svg width="26" height="26" viewBox="0 0 26 26" fill="none" xmlns="http://www.w3.org/2000/svg">
<path d="M11.2474 19.8098C11.0856 19.8098 10.9347 19.7667 10.7945 19.6696C10.568 19.5187 10.4386 19.2706 10.4386 19.0011C10.4386 18.8393 10.4278 18.6668 10.4063 18.4942C10.3092 17.7286 9.96412 17.06 9.3818 16.4776C8.79947 15.8953 8.07696 15.5287 7.30053 15.4316C7.17112 15.4208 6.9878 15.4101 6.81526 15.4208C6.53488 15.4424 6.27607 15.3238 6.11431 15.0973C5.95256 14.8816 5.90942 14.5905 5.99569 14.3317C6.15745 13.8895 6.39469 13.4905 6.67507 13.167L8.33577 11.075C11.1935 7.50554 16.9844 3.21359 21.2224 1.50976C22.1174 1.16468 23.0772 1.36957 23.735 2.01659C24.4144 2.69597 24.6193 3.66651 24.2634 4.55078C22.5596 8.79959 18.2784 14.5797 14.709 17.4374L12.5846 19.1412C12.1856 19.4324 11.8621 19.6157 11.5386 19.7451C11.4523 19.7883 11.3444 19.8098 11.2474 19.8098ZM8.13088 13.9542C9.03672 14.1915 9.8455 14.666 10.5249 15.3453C11.2043 16.0139 11.6572 16.7904 11.8836 17.6531L13.7061 16.1865C17.0922 13.4798 21.1577 7.99081 22.7645 3.95768C22.9262 3.55868 22.6998 3.2783 22.5919 3.18124C22.5164 3.10576 22.2361 2.86851 21.8047 3.03027C17.7931 4.64784 12.3042 8.71332 9.58669 12.0994L8.13088 13.9542Z" fill="white"/>
<path d="M4.39984 24.5331C3.59105 24.5331 2.81462 24.2096 2.2323 23.6272C1.5637 22.9587 1.24019 22.0312 1.34803 21.0823L1.63919 18.4295C1.91957 15.7982 4.07632 13.8464 6.7507 13.7924C6.95559 13.7817 7.22519 13.7924 7.47322 13.814C8.64865 13.965 9.69468 14.4934 10.5358 15.3345C11.3662 16.1649 11.8622 17.157 12.0132 18.2677C12.0455 18.505 12.0671 18.7638 12.0671 18.9902C12.0671 20.4137 11.5171 21.7401 10.525 22.743C9.69467 23.5625 8.62708 24.0694 7.4193 24.2204L4.7557 24.5115C4.63708 24.5223 4.51846 24.5331 4.39984 24.5331ZM6.95559 15.4208C6.91246 15.4208 6.85854 15.4208 6.81541 15.4208C5.18705 15.4531 3.46165 16.5639 3.24597 18.6128L2.95481 21.2656C2.90089 21.7185 3.06265 22.1607 3.37538 22.4842C3.68811 22.7969 4.13024 22.9587 4.57238 22.9047L7.22519 22.6136C8.05554 22.5057 8.79962 22.1607 9.36038 21.5999C10.0505 20.9097 10.4388 19.9823 10.4388 18.9902C10.4388 18.8285 10.428 18.6559 10.4064 18.4834C10.3094 17.7177 9.96427 17.0491 9.38194 16.4668C8.79962 15.8845 8.07711 15.5178 7.30068 15.4208C7.21441 15.4208 7.085 15.4208 6.95559 15.4208Z" fill="white"/>
<path d="M15.356 16.4129C14.9139 16.4129 14.5473 16.0463 14.5473 15.6042C14.5473 13.2317 12.617 11.3122 10.2553 11.3122C9.81318 11.3122 9.44653 10.9456 9.44653 10.5034C9.44653 10.0613 9.8024 9.69464 10.2445 9.69464C13.5012 9.69464 16.154 12.3475 16.154 15.6042C16.1648 16.0571 15.7982 16.4129 15.356 16.4129Z" fill="white"/>
</svg>
