<svg preserveAspectRatio="none" width="100%" height="100%" overflow="visible" style="display: block;" viewBox="0 0 33.6344 33.6344" fill="none" xmlns="http://www.w3.org/2000/svg">
<g id="AfterEffectsIcon" clip-path="url(#clip0_0_20)">
<path id="Vector" d="M25.8726 0.000165831H7.76179C3.47507 0.000165831 -2.37519e-06 3.47524 -2.37519e-06 7.76196V25.8728C-2.37519e-06 30.1595 3.47507 33.6346 7.76179 33.6346H25.8726C30.1594 33.6346 33.6344 30.1595 33.6344 25.8728V7.76196C33.6344 3.47524 30.1594 0.000165831 25.8726 0.000165831Z" fill="var(--fill-0, #00005B)"/>
<path id="Vector_2" d="M10.349 22.6385H8.79663L12.9363 11.6426H15.5235L20.698 22.6385H19.0163L17.7227 19.4044H11.6426L10.349 22.6385ZM12.1601 17.7226H17.3346L15.5235 13.583L12.1601 17.7226Z" fill="var(--fill-0, #9999FF)"/>
<path id="Vector_3" d="M20.0513 15.5234C21.9918 15.5234 23.9322 16.5583 23.9322 19.1456C23.9322 21.4741 22.3799 22.7678 20.0513 22.7678C19.4045 22.7678 18.7577 22.6384 18.2402 22.3797L18.8871 20.5686C19.2751 20.698 19.6632 20.8273 20.0513 20.8273C21.0862 20.8273 21.6037 20.1805 21.6037 19.1456C21.6037 17.9813 20.9569 17.4639 20.0513 17.4639C19.6632 17.4639 19.2751 17.5932 18.8871 17.7226L18.2402 15.9115C18.7577 15.6528 19.4045 15.5234 20.0513 15.5234Z" fill="var(--fill-0, #9999FF)"/>
</g>
<defs>
<clipPath id="clip0_0_20">
<rect width="33.6344" height="33.6344" fill="white"/>
</clipPath>
</defs>
</svg>
