<svg preserveAspectRatio="none" width="100%" height="100%" overflow="visible" style="display: block;" viewBox="0 0 23.2854 33.6344" fill="none" xmlns="http://www.w3.org/2000/svg">
<g id="FigmaIcon" clip-path="url(#clip0_0_34)">
<path id="Vector" d="M11.6427 6.90533C11.6427 3.98962 9.27904 1.62598 6.36334 1.62598C3.44764 1.62598 1.08399 3.98962 1.08399 6.90533C1.08399 9.82103 3.44764 12.1847 6.36334 12.1847C9.27904 12.1847 11.6427 9.82103 11.6427 6.90533Z" fill="var(--fill-0, #F24E1E)"/>
<path id="Vector_2" d="M22.2014 6.90533C22.2014 3.98962 19.8378 1.62598 16.922 1.62598C14.0063 1.62598 11.6427 3.98962 11.6427 6.90533C11.6427 9.82103 14.0063 12.1847 16.922 12.1847C19.8378 12.1847 22.2014 9.82103 22.2014 6.90533Z" fill="var(--fill-0, #A259FF)"/>
<path id="Vector_3" d="M11.6427 17.4639C11.6427 14.5482 9.27904 12.1846 6.36334 12.1846C3.44764 12.1846 1.08399 14.5482 1.08399 17.4639C1.08399 20.3796 3.44764 22.7433 6.36334 22.7433C9.27904 22.7433 11.6427 20.3796 11.6427 17.4639Z" fill="var(--fill-0, #FF7262)"/>
<path id="Vector_4" d="M16.922 22.7433C19.8378 22.7433 22.2014 20.3796 22.2014 17.4639C22.2014 14.5482 19.8378 12.1846 16.922 12.1846C14.0063 12.1846 11.6427 14.5482 11.6427 17.4639C11.6427 20.3796 14.0063 22.7433 16.922 22.7433Z" fill="var(--fill-0, #1ABCFE)"/>
<path id="Vector_5" d="M11.6427 28.0225C11.6427 25.1068 9.27904 22.7432 6.36334 22.7432C3.44764 22.7432 1.08399 25.1068 1.08399 28.0225C1.08399 30.9382 3.44764 33.3019 6.36334 33.3019C9.27904 33.3019 11.6427 30.9382 11.6427 28.0225Z" fill="var(--fill-0, #0ACF83)"/>
</g>
<defs>
<clipPath id="clip0_0_34">
<rect width="23.2854" height="33.6344" fill="white"/>
</clipPath>
</defs>
</svg>
