<svg preserveAspectRatio="none" width="100%" height="100%" overflow="visible" style="display: block;" viewBox="0 0 33.6344 33.6344" fill="none" xmlns="http://www.w3.org/2000/svg">
<g id="N8NIcon">
<path id="Vector" d="M7.11499 21.3455C9.61558 21.3455 11.6427 19.3183 11.6427 16.8178C11.6427 14.3172 9.61558 12.29 7.11499 12.29C4.61441 12.29 2.58728 14.3172 2.58728 16.8178C2.58728 19.3183 4.61441 21.3455 7.11499 21.3455Z" fill="var(--fill-0, #C2410C)" stroke="var(--stroke-0, #FB923C)" stroke-width="1.29363"/>
<path id="Vector_2" d="M16.8172 21.9918C19.675 21.9918 21.9918 19.6751 21.9918 16.8173C21.9918 13.9595 19.675 11.6428 16.8172 11.6428C13.9594 11.6428 11.6427 13.9595 11.6427 16.8173C11.6427 19.6751 13.9594 21.9918 16.8172 21.9918Z" fill="var(--fill-0, #EA6B00)" stroke="var(--stroke-0, #FBBF24)" stroke-width="1.29363"/>
<path id="Vector_3" d="M26.5195 21.3455C29.0201 21.3455 31.0472 19.3183 31.0472 16.8178C31.0472 14.3172 29.0201 12.29 26.5195 12.29C24.0189 12.29 21.9918 14.3172 21.9918 16.8178C21.9918 19.3183 24.0189 21.3455 26.5195 21.3455Z" fill="var(--fill-0, #C2410C)" stroke="var(--stroke-0, #FB923C)" stroke-width="1.29363"/>
<circle id="Ellipse" cx="11.6427" cy="16.8169" r="0.970224" fill="var(--fill-0, #FB923C)"/>
<circle id="Ellipse_2" cx="21.9918" cy="16.8169" r="0.970224" fill="var(--fill-0, #FB923C)"/>
<path id="Vector_4" d="M7.11499 18.7578C8.18667 18.7578 9.05543 17.889 9.05543 16.8173C9.05543 15.7456 8.18667 14.8769 7.11499 14.8769C6.04331 14.8769 5.17454 15.7456 5.17454 16.8173C5.17454 17.889 6.04331 18.7578 7.11499 18.7578Z" fill="var(--fill-0, white)"/>
<path id="Vector_5" d="M16.8172 19.1461C18.1033 19.1461 19.1458 18.1036 19.1458 16.8176C19.1458 15.5316 18.1033 14.489 16.8172 14.489C15.5312 14.489 14.4887 15.5316 14.4887 16.8176C14.4887 18.1036 15.5312 19.1461 16.8172 19.1461Z" fill="var(--fill-0, white)"/>
<path id="Vector_6" d="M26.5195 18.7578C27.5911 18.7578 28.4599 17.889 28.4599 16.8173C28.4599 15.7456 27.5911 14.8769 26.5195 14.8769C25.4478 14.8769 24.579 15.7456 24.579 16.8173C24.579 17.889 25.4478 18.7578 26.5195 18.7578Z" fill="var(--fill-0, white)"/>
</g>
</svg>
