<svg preserveAspectRatio="none" width="100%" height="100%" overflow="visible" style="display: block;" viewBox="0 0 33.6344 33.6344" fill="none" xmlns="http://www.w3.org/2000/svg">
<g id="PhotoshopIcon" clip-path="url(#clip0_0_16)">
<path id="Vector" d="M25.8727 0.000165831H7.76182C3.4751 0.000165831 2.43997e-05 3.47524 2.43997e-05 7.76196V25.8728C2.43997e-05 30.1595 3.4751 33.6346 7.76182 33.6346H25.8727C30.1594 33.6346 33.6345 30.1595 33.6345 25.8728V7.76196C33.6345 3.47524 30.1594 0.000165831 25.8727 0.000165831Z" fill="var(--fill-0, #001D34)"/>
<path id="Vector_2" d="M9.05542 11.6426H14.8768C17.464 11.6426 19.4045 13.1949 19.4045 15.5235C19.4045 17.852 17.464 19.4044 14.8768 19.4044H11.6427V23.2853H9.05542V11.6426ZM11.6427 17.4639H14.618C15.9117 17.4639 16.8172 16.8171 16.8172 15.5235C16.8172 14.2298 15.9117 14.2298 14.618 14.2298H11.6427V17.4639Z" fill="var(--fill-0, #31A8FF)"/>
<path id="Vector_3" d="M20.0513 18.7575C20.0513 16.5583 21.6037 15.5234 23.9322 15.5234V17.4639C22.8973 17.4639 22.3799 17.852 22.3799 18.7575V23.932H20.0513V18.7575Z" fill="var(--fill-0, #31A8FF)"/>
</g>
<defs>
<clipPath id="clip0_0_16">
<rect width="33.6344" height="33.6344" fill="white"/>
</clipPath>
</defs>
</svg>
