<svg preserveAspectRatio="none" width="100%" height="100%" overflow="visible" style="display: block;" viewBox="0 0 33.6344 33.6344" fill="none" xmlns="http://www.w3.org/2000/svg">
<g id="PremierProIcon" clip-path="url(#clip0_0_26)">
<path id="Vector" d="M25.8727 4.60643e-05H7.76182C3.4751 4.60643e-05 2.76386e-05 3.47512 2.76386e-05 7.76184V25.8727C2.76386e-05 30.1594 3.4751 33.6345 7.76182 33.6345H25.8727C30.1594 33.6345 33.6345 30.1594 33.6345 25.8727V7.76184C33.6345 3.47512 30.1594 4.60643e-05 25.8727 4.60643e-05Z" fill="var(--fill-0, #0D0026)"/>
<path id="Vector_2" d="M9.05541 11.6428H14.8768C17.7227 11.6428 19.4045 13.3245 19.4045 15.7824C19.4045 18.2403 17.7227 20.0514 14.8768 20.0514H11.6427V23.2855H9.05541V11.6428ZM11.6427 18.1109H14.618C15.9117 18.1109 16.8172 17.3348 16.8172 15.7824C16.8172 14.2301 15.9117 13.5832 14.618 13.5832H11.6427V18.1109Z" fill="var(--fill-0, #E77BFF)"/>
<path id="Vector_3" d="M20.0512 15.5234H22.3798L24.3202 18.3694L26.2607 15.5234H28.4598L25.2258 19.4043L28.4598 23.2852H25.8726L23.6734 20.0512L21.4742 23.2852H19.4044L22.6385 19.4043L20.0512 15.5234Z" fill="var(--fill-0, #E77BFF)"/>
</g>
<defs>
<clipPath id="clip0_0_26">
<rect width="33.6344" height="33.6344" fill="white"/>
</clipPath>
</defs>
</svg>
