<svg width="24" height="24" viewBox="0 0 24 24" fill="none" xmlns="http://www.w3.org/2000/svg">
<path d="M3.34997 2H12.25C12.99 2 13.6 2.61001 13.6 3.35001V4.82999C13.6 5.36999 13.26 6.04 12.93 6.38L10.03 8.94C9.63003 9.28 9.35998 9.94999 9.35998 10.49V13.39C9.35998 13.79 9.09 14.33 8.75 14.54L7.81 15.15C6.93 15.69 5.71997 15.08 5.71997 14V10.43C5.71997 9.95999 5.44999 9.35001 5.17999 9.01001L2.61999 6.31C2.27999 5.97 2.01001 5.36999 2.01001 4.95999V3.41C2.00001 2.61 2.60997 2 3.34997 2Z" stroke="currentColor" stroke-width="1.65" stroke-miterlimit="10" stroke-linecap="round" stroke-linejoin="round"/>
<path d="M2 11.9998V14.9998C2 19.9998 4 21.9998 9 21.9998H15C20 21.9998 22 19.9998 22 14.9998V8.99976C22 5.87976 21.22 3.91975 19.41 2.89975C18.9 2.60975 17.88 2.38975 16.95 2.23975" stroke="currentColor" stroke-width="1.65" stroke-linecap="round" stroke-linejoin="round"/>
<path d="M13 13H18" stroke="currentColor" stroke-width="1.65" stroke-linecap="round" stroke-linejoin="round"/>
<path d="M11 17H18" stroke="currentColor" stroke-width="1.65" stroke-linecap="round" stroke-linejoin="round"/>
</svg>
