<svg preserveAspectRatio="none" width="100%" height="100%" overflow="visible" style="display: block;" viewBox="0 0 23 23" fill="none" xmlns="http://www.w3.org/2000/svg">
<g id="Icon">
<path id="Vector" d="M15.0525 20.4058C14.8728 20.5855 14.6291 20.6864 14.375 20.6864C14.1209 20.6864 13.8772 20.5855 13.6975 20.4058L12.1775 18.8859C11.9979 18.7062 11.897 18.4624 11.897 18.2083C11.897 17.9542 11.9979 17.7105 12.1775 17.5308L17.5308 12.1775C17.7105 11.9979 17.9542 11.897 18.2083 11.897C18.4624 11.897 18.7062 11.9979 18.8859 12.1775L20.4058 13.6975C20.5855 13.8772 20.6864 14.1209 20.6864 14.375C20.6864 14.6291 20.5855 14.8728 20.4058 15.0525L15.0525 20.4058Z" stroke="var(--stroke-0, #C4B5FD)" stroke-width="1.65" stroke-linecap="round" stroke-linejoin="round"/>
<path id="Vector_2" d="M17.25 12.4583L15.9323 5.87075C15.8964 5.69152 15.8101 5.52628 15.6834 5.39452C15.5568 5.26275 15.3951 5.16996 15.2174 5.12708L3.10021 1.9435C2.94058 1.9049 2.7737 1.90798 2.6156 1.95243C2.4575 1.99688 2.31348 2.08122 2.19735 2.19735C2.08122 2.31348 1.99688 2.4575 1.95243 2.6156C1.90798 2.7737 1.9049 2.94058 1.9435 3.10021L5.12708 15.2174C5.16996 15.3951 5.26275 15.5568 5.39452 15.6834C5.52628 15.8101 5.69152 15.8964 5.87075 15.9323L12.4583 17.25" stroke="var(--stroke-0, #C4B5FD)" stroke-width="1.65" stroke-linecap="round" stroke-linejoin="round"/>
<path id="Vector_3" d="M2.20417 2.20417L9.18658 9.18658" stroke="var(--stroke-0, #C4B5FD)" stroke-width="1.65" stroke-linecap="round" stroke-linejoin="round"/>
<path id="Vector_4" d="M10.5417 12.4583C11.6002 12.4583 12.4583 11.6002 12.4583 10.5417C12.4583 9.48312 11.6002 8.625 10.5417 8.625C9.48312 8.625 8.625 9.48312 8.625 10.5417C8.625 11.6002 9.48312 12.4583 10.5417 12.4583Z" stroke="var(--stroke-0, #C4B5FD)" stroke-width="1.65" stroke-linecap="round" stroke-linejoin="round"/>
</g>
</svg>
