<svg width="24" height="24" viewBox="0 0 24 24" fill="none" xmlns="http://www.w3.org/2000/svg">
<path d="M15.0526 20.4058C14.8728 20.5855 14.6291 20.6864 14.375 20.6864C14.1209 20.6864 13.8772 20.5855 13.6975 20.4058L12.1776 18.8859C11.9979 18.7062 11.897 18.4625 11.897 18.2084C11.897 17.9542 11.9979 17.7105 12.1776 17.5308L17.5308 12.1776C17.7105 11.9979 17.9542 11.897 18.2084 11.897C18.4625 11.897 18.7062 11.9979 18.8859 12.1776L20.4058 13.6975C20.5855 13.8772 20.6864 14.1209 20.6864 14.375C20.6864 14.6291 20.5855 14.8728 20.4058 15.0526L15.0526 20.4058Z" stroke="currentColor" stroke-width="1.65" stroke-linecap="round" stroke-linejoin="round"/>
<path d="M17.25 12.4582L15.9323 5.87059C15.8965 5.69137 15.8101 5.52612 15.6835 5.39436C15.5568 5.2626 15.3951 5.1698 15.2174 5.12693L3.10023 1.94334C2.9406 1.90475 2.77373 1.90782 2.61563 1.95228C2.45753 1.99673 2.31351 2.08106 2.19738 2.19719C2.08125 2.31332 1.99691 2.45735 1.95246 2.61545C1.90801 2.77355 1.90493 2.94042 1.94353 3.10005L5.12711 15.2172C5.16999 15.3949 5.26278 15.5566 5.39454 15.6833C5.52631 15.8099 5.69155 15.8963 5.87078 15.9321L12.4584 17.2498" stroke="currentColor" stroke-width="1.65" stroke-linecap="round" stroke-linejoin="round"/>
<path d="M2.20416 2.2041L9.18658 9.18652" stroke="currentColor" stroke-width="1.65" stroke-linecap="round" stroke-linejoin="round"/>
<path d="M10.5417 12.4583C11.6002 12.4583 12.4583 11.6002 12.4583 10.5417C12.4583 9.48312 11.6002 8.625 10.5417 8.625C9.48312 8.625 8.625 9.48312 8.625 10.5417C8.625 11.6002 9.48312 12.4583 10.5417 12.4583Z" stroke="currentColor" stroke-width="1.65" stroke-linecap="round" stroke-linejoin="round"/>
</svg>
