<svg width="659" height="918" viewBox="0 0 659 918" fill="none" xmlns="http://www.w3.org/2000/svg">
<rect width="659" height="918" fill="#1F1F1F"/>
<g id="Frame 5067">
<g id="Frame 5058">
<g id="4" clip-path="url(#clip0_83_677)">
<rect width="1444" height="918" fill="#040404"/>
<g id="Frame 48095475" opacity="0.62">
<path id="Union" d="M515 1341H-565V-9H515V1341ZM-564 1340H-431V1207H-564V1340ZM-429 1340H-296V1207H-429V1340ZM-294 1340H-161V1207H-294V1340ZM-159 1340H-26V1207H-159V1340ZM-24 1340H109V1207H-24V1340ZM111 1340H244V1207H111V1340ZM246 1340H379V1207H246V1340ZM381 1340H514V1207H381V1340ZM-564 1205H-431V1072H-564V1205ZM-429 1205H-296V1072H-429V1205ZM-294 1205H-161V1072H-294V1205ZM-159 1205H-26V1072H-159V1205ZM-24 1205H109V1072H-24V1205ZM111 1205H244V1072H111V1205ZM246 1205H379V1072H246V1205ZM381 1205H514V1072H381V1205ZM-564 1070H-431V937H-564V1070ZM-429 1070H-296V937H-429V1070ZM-294 1070H-161V937H-294V1070ZM-159 1070H-26V937H-159V1070ZM-24 1070H109V937H-24V1070ZM111 1070H244V937H111V1070ZM246 1070H379V937H246V1070ZM381 1070H514V937H381V1070ZM-564 935H-431V802H-564V935ZM-429 935H-296V802H-429V935ZM-294 935H-161V802H-294V935ZM-159 935H-26V802H-159V935ZM-24 935H109V802H-24V935ZM111 935H244V802H111V935ZM246 935H379V802H246V935ZM381 935H514V802H381V935ZM-564 800H-431V667H-564V800ZM-429 800H-296V667H-429V800ZM-294 800H-161V667H-294V800ZM-159 800H-26V667H-159V800ZM-24 800H109V667H-24V800ZM111 800H244V667H111V800ZM246 800H379V667H246V800ZM381 800H514V667H381V800ZM-564 665H-431V532H-564V665ZM-429 665H-296V532H-429V665ZM-294 665H-161V532H-294V665ZM-159 665H-26V532H-159V665ZM-24 665H109V532H-24V665ZM111 665H244V532H111V665ZM246 665H379V532H246V665ZM381 665H514V532H381V665ZM-564 530H-431V397H-564V530ZM-429 530H-296V397H-429V530ZM-294 530H-161V397H-294V530ZM-159 530H-26V397H-159V530ZM-24 530H109V397H-24V530ZM111 530H244V397H111V530ZM246 530H379V397H246V530ZM381 530H514V397H381V530ZM-564 395H-431V262H-564V395ZM-429 395H-296V262H-429V395ZM-294 395H-161V262H-294V395ZM-159 395H-26V262H-159V395ZM-24 395H109V262H-24V395ZM111 395H244V262H111V395ZM246 395H379V262H246V395ZM381 395H514V262H381V395ZM-564 260H-431V127H-564V260ZM-429 260H-296V127H-429V260ZM-294 260H-161V127H-294V260ZM-159 260H-26V127H-159V260ZM-24 260H109V127H-24V260ZM111 260H244V127H111V260ZM246 260H379V127H246V260ZM381 260H514V127H381V260ZM-564 125H-431V-8H-564V125ZM-429 125H-296V-8H-429V125ZM-294 125H-161V-8H-294V125ZM-159 125H-26V-8H-159V125ZM-24 125H109V-8H-24V125ZM111 125H244V-8H111V125ZM246 125H379V-8H246V125ZM381 125H514V-8H381V125Z" fill="url(#paint0_radial_83_677)"/>
</g>
</g>
</g>
</g>
<defs>
<radialGradient id="paint0_radial_83_677" cx="0" cy="0" r="1" gradientUnits="userSpaceOnUse" gradientTransform="translate(-25 666) rotate(90) scale(675 540)">
<stop stop-color="#D2D2D2" stop-opacity="0.1"/>
<stop offset="1" stop-color="#EFEFEF" stop-opacity="0"/>
</radialGradient>
<clipPath id="clip0_83_677">
<rect width="1444" height="918" fill="white"/>
</clipPath>
</defs>
</svg>
