<svg preserveAspectRatio="none" width="100%" height="100%" overflow="visible" style="display: block;" viewBox="0 0 1080 1350" fill="none" xmlns="http://www.w3.org/2000/svg">
<g id="Frame 48095475">
<path id="Union" d="M1080 1350H0V0H1080V1350ZM1 1349H134V1216H1V1349ZM136 1349H269V1216H136V1349ZM271 1349H404V1216H271V1349ZM406 1349H539V1216H406V1349ZM541 1349H674V1216H541V1349ZM676 1349H809V1216H676V1349ZM811 1349H944V1216H811V1349ZM946 1349H1079V1216H946V1349ZM1 1214H134V1081H1V1214ZM136 1214H269V1081H136V1214ZM271 1214H404V1081H271V1214ZM406 1214H539V1081H406V1214ZM541 1214H674V1081H541V1214ZM676 1214H809V1081H676V1214ZM811 1214H944V1081H811V1214ZM946 1214H1079V1081H946V1214ZM1 1079H134V946H1V1079ZM136 1079H269V946H136V1079ZM271 1079H404V946H271V1079ZM406 1079H539V946H406V1079ZM541 1079H674V946H541V1079ZM676 1079H809V946H676V1079ZM811 1079H944V946H811V1079ZM946 1079H1079V946H946V1079ZM1 944H134V811H1V944ZM136 944H269V811H136V944ZM271 944H404V811H271V944ZM406 944H539V811H406V944ZM541 944H674V811H541V944ZM676 944H809V811H676V944ZM811 944H944V811H811V944ZM946 944H1079V811H946V944ZM1 809H134V676H1V809ZM136 809H269V676H136V809ZM271 809H404V676H271V809ZM406 809H539V676H406V809ZM541 809H674V676H541V809ZM676 809H809V676H676V809ZM811 809H944V676H811V809ZM946 809H1079V676H946V809ZM1 674H134V541H1V674ZM136 674H269V541H136V674ZM271 674H404V541H271V674ZM406 674H539V541H406V674ZM541 674H674V541H541V674ZM676 674H809V541H676V674ZM811 674H944V541H811V674ZM946 674H1079V541H946V674ZM1 539H134V406H1V539ZM136 539H269V406H136V539ZM271 539H404V406H271V539ZM406 539H539V406H406V539ZM541 539H674V406H541V539ZM676 539H809V406H676V539ZM811 539H944V406H811V539ZM946 539H1079V406H946V539ZM1 404H134V271H1V404ZM136 404H269V271H136V404ZM271 404H404V271H271V404ZM406 404H539V271H406V404ZM541 404H674V271H541V404ZM676 404H809V271H676V404ZM811 404H944V271H811V404ZM946 404H1079V271H946V404ZM1 269H134V136H1V269ZM136 269H269V136H136V269ZM271 269H404V136H271V269ZM406 269H539V136H406V269ZM541 269H674V136H541V269ZM676 269H809V136H676V269ZM811 269H944V136H811V269ZM946 269H1079V136H946V269ZM1 134H134V1H1V134ZM136 134H269V1H136V134ZM271 134H404V1H271V134ZM406 134H539V1H406V134ZM541 134H674V1H541V134ZM676 134H809V1H676V134ZM811 134H944V1H811V134ZM946 134H1079V1H946V134Z" fill="url(#paint0_radial_0_28)"/>
</g>
<defs>
<radialGradient id="paint0_radial_0_28" cx="0" cy="0" r="1" gradientUnits="userSpaceOnUse" gradientTransform="translate(540 675) rotate(90) scale(675 540)">
<stop stop-color="#D2D2D2" stop-opacity="0.1"/>
<stop offset="1" stop-color="#EFEFEF" stop-opacity="0"/>
</radialGradient>
</defs>
</svg>
